<mxfile host="app.diagrams.net" modified="2022-10-08T12:48:23.798Z" agent="5.0 (Windows NT 10.0; Win64; x64) AppleWebKit/537.36 (KHTML, like Gecko) Chrome/106.0.0.0 Safari/537.36 Edg/106.0.1370.37" etag="H97LYvLxG3QCC0_yTHXj" version="20.4.0" type="github">
  <diagram id="uFF63pCtqbtRlG7e-ytk" name="第 1 页">
    <mxGraphModel dx="1038" dy="1803" grid="1" gridSize="10" guides="1" tooltips="1" connect="1" arrows="1" fold="1" page="1" pageScale="1" pageWidth="827" pageHeight="1169" math="0" shadow="0">
      <root>
        <mxCell id="0" />
        <mxCell id="1" parent="0" />
        <mxCell id="7M69Pb_JgjFaqeYmJ_j--20" value="" style="rounded=0;whiteSpace=wrap;html=1;fillColor=#FFFFFF;" vertex="1" parent="1">
          <mxGeometry x="130" y="-130" width="580" height="230" as="geometry" />
        </mxCell>
        <mxCell id="7M69Pb_JgjFaqeYmJ_j--1" value="" style="rounded=0;whiteSpace=wrap;html=1;" vertex="1" parent="1">
          <mxGeometry x="180" y="300" width="80" height="40" as="geometry" />
        </mxCell>
        <mxCell id="7M69Pb_JgjFaqeYmJ_j--2" value="8" style="rounded=0;whiteSpace=wrap;html=1;" vertex="1" parent="1">
          <mxGeometry x="260" y="300" width="80" height="40" as="geometry" />
        </mxCell>
        <mxCell id="7M69Pb_JgjFaqeYmJ_j--3" value="" style="rounded=0;whiteSpace=wrap;html=1;" vertex="1" parent="1">
          <mxGeometry x="340" y="300" width="80" height="40" as="geometry" />
        </mxCell>
        <mxCell id="7M69Pb_JgjFaqeYmJ_j--4" value="8" style="rounded=0;whiteSpace=wrap;html=1;fillColor=#FFB366;" vertex="1" parent="1">
          <mxGeometry x="420" y="300" width="80" height="40" as="geometry" />
        </mxCell>
        <mxCell id="7M69Pb_JgjFaqeYmJ_j--5" value="" style="rounded=0;whiteSpace=wrap;html=1;" vertex="1" parent="1">
          <mxGeometry x="500" y="300" width="80" height="40" as="geometry" />
        </mxCell>
        <mxCell id="7M69Pb_JgjFaqeYmJ_j--6" value="栈" style="text;html=1;strokeColor=none;fillColor=none;align=center;verticalAlign=middle;whiteSpace=wrap;rounded=0;" vertex="1" parent="1">
          <mxGeometry x="90" y="305" width="60" height="30" as="geometry" />
        </mxCell>
        <mxCell id="7M69Pb_JgjFaqeYmJ_j--8" value="a" style="text;html=1;strokeColor=none;fillColor=none;align=center;verticalAlign=middle;whiteSpace=wrap;rounded=0;" vertex="1" parent="1">
          <mxGeometry x="270" y="220" width="60" height="30" as="geometry" />
        </mxCell>
        <mxCell id="7M69Pb_JgjFaqeYmJ_j--9" value="" style="endArrow=classic;html=1;rounded=0;" edge="1" parent="1">
          <mxGeometry width="50" height="50" relative="1" as="geometry">
            <mxPoint x="299.5" y="250" as="sourcePoint" />
            <mxPoint x="299.5" y="290" as="targetPoint" />
          </mxGeometry>
        </mxCell>
        <mxCell id="7M69Pb_JgjFaqeYmJ_j--12" value="b" style="text;html=1;strokeColor=none;fillColor=none;align=center;verticalAlign=middle;whiteSpace=wrap;rounded=0;" vertex="1" parent="1">
          <mxGeometry x="430" y="220" width="60" height="30" as="geometry" />
        </mxCell>
        <mxCell id="7M69Pb_JgjFaqeYmJ_j--13" value="" style="endArrow=classic;html=1;rounded=0;" edge="1" parent="1">
          <mxGeometry width="50" height="50" relative="1" as="geometry">
            <mxPoint x="459.5" y="250" as="sourcePoint" />
            <mxPoint x="459.5" y="290" as="targetPoint" />
          </mxGeometry>
        </mxCell>
        <mxCell id="7M69Pb_JgjFaqeYmJ_j--14" value="" style="endArrow=classic;html=1;rounded=0;startArrow=none;" edge="1" parent="1" source="7M69Pb_JgjFaqeYmJ_j--17">
          <mxGeometry width="50" height="50" relative="1" as="geometry">
            <mxPoint x="305" y="350" as="sourcePoint" />
            <mxPoint x="455" y="350" as="targetPoint" />
            <Array as="points">
              <mxPoint x="455" y="380" />
            </Array>
          </mxGeometry>
        </mxCell>
        <mxCell id="7M69Pb_JgjFaqeYmJ_j--17" value="复制" style="text;html=1;strokeColor=none;fillColor=none;align=center;verticalAlign=middle;whiteSpace=wrap;rounded=0;" vertex="1" parent="1">
          <mxGeometry x="351" y="365" width="60" height="30" as="geometry" />
        </mxCell>
        <mxCell id="7M69Pb_JgjFaqeYmJ_j--18" value="" style="endArrow=none;html=1;rounded=0;" edge="1" parent="1" target="7M69Pb_JgjFaqeYmJ_j--17">
          <mxGeometry width="50" height="50" relative="1" as="geometry">
            <mxPoint x="305" y="350" as="sourcePoint" />
            <mxPoint x="455" y="350" as="targetPoint" />
            <Array as="points">
              <mxPoint x="305" y="360" />
              <mxPoint x="305" y="380" />
            </Array>
          </mxGeometry>
        </mxCell>
        <mxCell id="7M69Pb_JgjFaqeYmJ_j--21" value="值语义复制" style="text;html=1;strokeColor=none;fillColor=none;align=center;verticalAlign=middle;whiteSpace=wrap;rounded=0;" vertex="1" parent="1">
          <mxGeometry x="70" y="200" width="150" height="30" as="geometry" />
        </mxCell>
        <mxCell id="7M69Pb_JgjFaqeYmJ_j--22" value="" style="rounded=0;whiteSpace=wrap;html=1;" vertex="1" parent="1">
          <mxGeometry x="236" y="-10" width="80" height="40" as="geometry" />
        </mxCell>
        <mxCell id="7M69Pb_JgjFaqeYmJ_j--23" value="8" style="rounded=0;whiteSpace=wrap;html=1;" vertex="1" parent="1">
          <mxGeometry x="316" y="-10" width="80" height="40" as="geometry" />
        </mxCell>
        <mxCell id="7M69Pb_JgjFaqeYmJ_j--24" value="" style="rounded=0;whiteSpace=wrap;html=1;" vertex="1" parent="1">
          <mxGeometry x="396" y="-10" width="80" height="40" as="geometry" />
        </mxCell>
        <mxCell id="7M69Pb_JgjFaqeYmJ_j--25" value="8" style="rounded=0;whiteSpace=wrap;html=1;fillColor=#FFB366;" vertex="1" parent="1">
          <mxGeometry x="476" y="-10" width="80" height="40" as="geometry" />
        </mxCell>
        <mxCell id="7M69Pb_JgjFaqeYmJ_j--26" value="" style="rounded=0;whiteSpace=wrap;html=1;" vertex="1" parent="1">
          <mxGeometry x="556" y="-10" width="80" height="40" as="geometry" />
        </mxCell>
        <mxCell id="7M69Pb_JgjFaqeYmJ_j--27" value="栈" style="text;html=1;strokeColor=none;fillColor=none;align=center;verticalAlign=middle;whiteSpace=wrap;rounded=0;" vertex="1" parent="1">
          <mxGeometry x="146" y="-5" width="60" height="30" as="geometry" />
        </mxCell>
        <mxCell id="7M69Pb_JgjFaqeYmJ_j--28" value="a" style="text;html=1;strokeColor=none;fillColor=none;align=center;verticalAlign=middle;whiteSpace=wrap;rounded=0;" vertex="1" parent="1">
          <mxGeometry x="326" y="-90" width="60" height="30" as="geometry" />
        </mxCell>
        <mxCell id="7M69Pb_JgjFaqeYmJ_j--29" value="" style="endArrow=classic;html=1;rounded=0;" edge="1" parent="1">
          <mxGeometry width="50" height="50" relative="1" as="geometry">
            <mxPoint x="355.5" y="-60" as="sourcePoint" />
            <mxPoint x="355.5" y="-20" as="targetPoint" />
          </mxGeometry>
        </mxCell>
        <mxCell id="7M69Pb_JgjFaqeYmJ_j--30" value="b" style="text;html=1;strokeColor=none;fillColor=none;align=center;verticalAlign=middle;whiteSpace=wrap;rounded=0;" vertex="1" parent="1">
          <mxGeometry x="486" y="-90" width="60" height="30" as="geometry" />
        </mxCell>
        <mxCell id="7M69Pb_JgjFaqeYmJ_j--31" value="" style="endArrow=classic;html=1;rounded=0;" edge="1" parent="1">
          <mxGeometry width="50" height="50" relative="1" as="geometry">
            <mxPoint x="515.5" y="-60" as="sourcePoint" />
            <mxPoint x="515.5" y="-20" as="targetPoint" />
          </mxGeometry>
        </mxCell>
        <mxCell id="7M69Pb_JgjFaqeYmJ_j--32" value="" style="endArrow=classic;html=1;rounded=0;startArrow=none;" edge="1" parent="1" source="7M69Pb_JgjFaqeYmJ_j--33">
          <mxGeometry width="50" height="50" relative="1" as="geometry">
            <mxPoint x="361" y="40" as="sourcePoint" />
            <mxPoint x="511" y="40" as="targetPoint" />
            <Array as="points">
              <mxPoint x="511" y="70" />
            </Array>
          </mxGeometry>
        </mxCell>
        <mxCell id="7M69Pb_JgjFaqeYmJ_j--33" value="复制" style="text;html=1;strokeColor=none;fillColor=none;align=center;verticalAlign=middle;whiteSpace=wrap;rounded=0;" vertex="1" parent="1">
          <mxGeometry x="407" y="55" width="60" height="30" as="geometry" />
        </mxCell>
        <mxCell id="7M69Pb_JgjFaqeYmJ_j--34" value="" style="endArrow=none;html=1;rounded=0;" edge="1" parent="1" target="7M69Pb_JgjFaqeYmJ_j--33">
          <mxGeometry width="50" height="50" relative="1" as="geometry">
            <mxPoint x="361" y="40" as="sourcePoint" />
            <mxPoint x="511" y="40" as="targetPoint" />
            <Array as="points">
              <mxPoint x="361" y="50" />
              <mxPoint x="361" y="70" />
            </Array>
          </mxGeometry>
        </mxCell>
        <mxCell id="7M69Pb_JgjFaqeYmJ_j--35" value="值语义复制" style="text;html=1;strokeColor=#d79b00;fillColor=#ffe6cc;align=center;verticalAlign=middle;whiteSpace=wrap;rounded=0;" vertex="1" parent="1">
          <mxGeometry x="140" y="-110" width="150" height="30" as="geometry" />
        </mxCell>
      </root>
    </mxGraphModel>
  </diagram>
</mxfile>
